<?xml version="1.0" encoding="UTF-8"?>
<svg version="1.1" xmlns="http://www.w3.org/2000/svg" width="200" height="200">
<path d="M0 0 C0 21.45 0 42.9 0 65 C-13.76470588 65 -13.76470588 65 -20 61 C-20.33 60.34 -20.66 59.68 -21 59 C-21.9590625 58.566875 -21.9590625 58.566875 -22.9375 58.125 C-25.51710143 56.71794467 -25.78673459 55.64252883 -27 53 C-27.41378906 52.18402344 -27.82757813 51.36804688 -28.25390625 50.52734375 C-28.68574219 49.67269531 -29.11757812 48.81804687 -29.5625 47.9375 C-29.99691406 47.08027344 -30.43132812 46.22304688 -30.87890625 45.33984375 C-34.41760288 37.95420165 -34.3847224 28.26437004 -31.87109375 20.5234375 C-29.03885233 14.68147739 -25.57634327 9.60198105 -21 5 C-20.50886719 4.48566406 -20.01773438 3.97132812 -19.51171875 3.44140625 C-13.19080167 -2.58551469 -11.50742237 0 0 0 Z " fill="#32B4B2" transform="translate(103,16)"/>
<path d="M0 0 C0.66 0 1.32 0 2 0 C2.66 0.99 3.32 1.98 4 3 C4.66 3.66 5.32 4.32 6 5 C6.37467382 7.04367539 6.50396061 9.05386434 6.65625 11.125 C6.86035366 13.23902286 6.86035366 13.23902286 9 15 C11.06038083 17.29811708 11.94347241 18.52516827 12.3125 21.625 C12 24 12 24 10 26 C6.9609375 26.4140625 6.9609375 26.4140625 3.375 26.625 C2.18648437 26.69976562 0.99796875 26.77453125 -0.2265625 26.8515625 C-1.59941406 26.92503906 -1.59941406 26.92503906 -3 27 C-3 27.99 -3 28.98 -3 30 C-1.35 30 0.3 30 2 30 C2.04241723 32.33294775 2.04092937 34.66702567 2 37 C1.67 37.33 1.34 37.66 1 38 C1.60328125 37.98839844 2.2065625 37.97679687 2.828125 37.96484375 C3.62734375 37.95582031 4.4265625 37.94679687 5.25 37.9375 C6.03890625 37.92589844 6.8278125 37.91429687 7.640625 37.90234375 C9.9161381 37.99652889 11.80722776 38.42462381 14 39 C14.99 39 15.98 39 17 39 C16.625 41.4375 16.625 41.4375 16 44 C14 45 14 45 10.5625 44.4375 C6.90129691 43.59492492 6.90129691 43.59492492 4 46 C1.73828125 46.1953125 1.73828125 46.1953125 -0.6875 46.125 C-1.49574219 46.10695312 -2.30398437 46.08890625 -3.13671875 46.0703125 C-3.75160156 46.04710937 -4.36648437 46.02390625 -5 46 C-4.34 45.34 -3.68 44.68 -3 44 C-4.98 44 -6.96 44 -9 44 C-8.83951172 42.48019531 -8.83951172 42.48019531 -8.67578125 40.9296875 C-8.55377262 39.57820728 -8.43273011 38.2266396 -8.3125 36.875 C-8.23966797 36.20984375 -8.16683594 35.5446875 -8.09179688 34.859375 C-7.68977035 30.03505674 -8.50528158 27.11724737 -11 23 C-12.65 23 -14.3 23 -16 23 C-16.05416188 21.39620659 -16.09286638 19.79188594 -16.125 18.1875 C-16.14820312 17.29417969 -16.17140625 16.40085938 -16.1953125 15.48046875 C-16 13 -16 13 -14 10 C-14.30027117 8.32706064 -14.63557767 6.66014616 -15 5 C-14.5625 2.6875 -14.5625 2.6875 -14 1 C-13.34 1 -12.68 1 -12 1 C-10.68 6.28 -9.36 11.56 -8 17 C-6.68 16.67 -5.36 16.34 -4 16 C-3.67 17.32 -3.34 18.64 -3 20 C-2.67 19.01 -2.34 18.02 -2 17 C-1.67 16.34 -1.34 15.68 -1 15 C-1.33 14.01 -1.66 13.02 -2 12 C-1.73202649 9.99019869 -1.39013716 7.9896995 -1 6 C-0.814375 4.88625 -0.62875 3.7725 -0.4375 2.625 C-0.293125 1.75875 -0.14875 0.8925 0 0 Z M3 5 C4 7 4 7 4 7 Z M0 9 C1 13 1 13 1 13 Z M4 12 C5 14 5 14 5 14 Z M-14 13 C-13 17 -13 17 -13 17 Z M5 15 C6 17 6 17 6 17 Z M0 16 C0.66 16.66 1.32 17.32 2 18 C2.66 17.34 3.32 16.68 4 16 C2.68 16 1.36 16 0 16 Z M-13 17 C-12 19 -12 19 -12 19 Z M6 17 C5.34 18.32 4.68 19.64 4 21 C5.32 21.33 6.64 21.66 8 22 C7.67 20.35 7.34 18.7 7 17 C6.67 17 6.34 17 6 17 Z M-8 19 C-8 21.64 -8 24.28 -8 27 C-7.34 27 -6.68 27 -6 27 C-6 24.69 -6 22.38 -6 20 C-6.66 19.67 -7.32 19.34 -8 19 Z M-6 32 C-5.67 32.99 -5.34 33.98 -5 35 C-5 34.01 -5 33.02 -5 32 C-5.33 32 -5.66 32 -6 32 Z M-5 36 C-5.66 36.66 -6.32 37.32 -7 38 C-6.01 38 -5.02 38 -4 38 C-4.33 37.34 -4.66 36.68 -5 36 Z M10 41 C10 41.66 10 42.32 10 43 C10.66 43 11.32 43 12 43 C12 42.34 12 41.68 12 41 C11.34 41 10.68 41 10 41 Z " fill="#B0B0B0" transform="translate(103,125)"/>
<path d="M0 0 C6.93 0 13.86 0 21 0 C18 9 18 9 16 13 C15.67 13.99 15.34 14.98 15 16 C14.34 16.33 13.68 16.66 13 17 C11.8553125 18.2065625 11.8553125 18.2065625 10.6875 19.4375 C8.08308796 21.9207766 6.44375823 23.09374783 3 24 C2.01 23.67 1.02 23.34 0 23 C0 15.41 0 7.82 0 0 Z " fill="#32B5B4" transform="translate(113,55)"/>
<path d="M0 0 C7.99577836 2.80932753 13.88247987 10.79433976 18 18 C18.66 20.64 19.32 23.28 20 26 C13.07 25.67 6.14 25.34 -1 25 C-1.02687041 21.20828653 -1.04677587 17.41676177 -1.0625 13.625 C-1.07087891 12.54476563 -1.07925781 11.46453125 -1.08789062 10.3515625 C-1.09111328 9.3203125 -1.09433594 8.2890625 -1.09765625 7.2265625 C-1.10289307 6.27346191 -1.10812988 5.32036133 -1.11352539 4.33837891 C-1 2 -1 2 0 0 Z " fill="#32B4B2" transform="translate(114,16)"/>
<path d="M0 0 C2.31 0 4.62 0 7 0 C7.04241723 2.33294775 7.04092937 4.66702567 7 7 C6.67 7.33 6.34 7.66 6 8 C6.90492187 7.98259766 6.90492187 7.98259766 7.828125 7.96484375 C9.02695313 7.95130859 9.02695313 7.95130859 10.25 7.9375 C11.43335937 7.92009766 11.43335937 7.92009766 12.640625 7.90234375 C14.9161381 7.99652889 16.80722776 8.42462381 19 9 C19.99 9 20.98 9 22 9 C21.625 11.4375 21.625 11.4375 21 14 C19 15 19 15 15.5625 14.4375 C11.90129691 13.59492492 11.90129691 13.59492492 9 16 C6.73828125 16.1953125 6.73828125 16.1953125 4.3125 16.125 C3.50425781 16.10695312 2.69601563 16.08890625 1.86328125 16.0703125 C1.24839844 16.04710937 0.63351563 16.02390625 0 16 C0.66 15.34 1.32 14.68 2 14 C0.02 14 -1.96 14 -4 14 C-3.38043478 6.44130435 -3.38043478 6.44130435 -1.4375 4.1875 C-0.963125 3.795625 -0.48875 3.40375 0 3 C0 2.01 0 1.02 0 0 Z M0 6 C-0.66 6.66 -1.32 7.32 -2 8 C-1.01 8 -0.02 8 1 8 C0.67 7.34 0.34 6.68 0 6 Z M15 11 C15 11.66 15 12.32 15 13 C15.66 13 16.32 13 17 13 C17 12.34 17 11.68 17 11 C16.34 11 15.68 11 15 11 Z " fill="#B6B6B6" transform="translate(98,155)"/>
<path d="M0 0 C0.99 0.33 1.98 0.66 3 1 C3.625 3 3.625 3 4 5 C4.33 5.33 4.66 5.66 5 6 C5.66 4.35 6.32 2.7 7 1 C10.82097239 1.53069061 13.06171403 2.49701566 16 5 C15.125 11.75 15.125 11.75 14 14 C13.9603287 15.66619446 13.95615553 17.33391013 14 19 C13.2575 18.79375 12.515 18.5875 11.75 18.375 C8.67669159 17.95591249 7.57213134 18.38050989 5 20 C4.40267181 17.23735711 4 14.83967231 4 12 C3.37400383 10.31763529 2.71247732 8.6476038 2 7 C1.34 8.32 0.68 9.64 0 11 C-0.99 10.67 -1.98 10.34 -3 10 C-2.01 6.7 -1.02 3.4 0 0 Z M8 3 C8.33 4.32 8.66 5.64 9 7 C9.33 6.01 9.66 5.02 10 4 C9.34 3.67 8.68 3.34 8 3 Z M13 6 C14 8 14 8 14 8 Z M7 7 C6.32041397 9.39719432 6.32041397 9.39719432 6 12 C6.66 12.66 7.32 13.32 8 14 C8.66 12.68 9.32 11.36 10 10 C9.01 9.01 8.02 8.02 7 7 Z M10 12 C11 14 11 14 11 14 Z " fill="#A5A5A5" transform="translate(78,151)"/>
<path d="M0 0 C2.64 0 5.28 0 8 0 C8.66 1.65 9.32 3.3 10 5 C3.25 8 3.25 8 1 8 C1.33 8.66 1.66 9.32 2 10 C5.465 9.505 5.465 9.505 9 9 C9.79953138 12.28696233 10.09658936 13.71023192 9 17 C6.22899606 18.38550197 4.0665294 18.1877467 1 18 C-2 16 -2 16 -2.6171875 13.828125 C-3.16922512 8.30774877 -3.17441253 4.82510705 0 0 Z M2 16 C2 16.33 2 16.66 2 17 C3.65 17 5.3 17 7 17 C7 16.67 7 16.34 7 16 C5.35 16 3.7 16 2 16 Z " fill="#00535E" transform="translate(36,94)"/>
<path d="M0 0 C3.63 0 7.26 0 11 0 C11.125 10.5 11.125 10.5 10 15 C7.03 15 4.06 15 1 15 C-0.09506492 11.71480525 -0.09960608 9.26336585 -0.0625 5.8125 C-0.05347656 4.72582031 -0.04445313 3.63914062 -0.03515625 2.51953125 C-0.02355469 1.68808594 -0.01195313 0.85664062 0 0 Z " fill="#005566" transform="translate(82,96)"/>
<path d="M0 0 C3.63 0 7.26 0 11 0 C11 4.62 11 9.24 11 14 C7.37 14 3.74 14 0 14 C0 9.38 0 4.76 0 0 Z " fill="#00535F" transform="translate(51,96)"/>
<path d="M0 0 C0 5.33333333 0 10.66666667 0 16 C-1.65 15.67 -3.3 15.34 -5 15 C-5 14.01 -5 13.02 -5 12 C-5.66 11.67 -6.32 11.34 -7 11 C-7 11.99 -7 12.98 -7 14 C-7.99 14 -8.98 14 -10 14 C-10 9.38 -10 4.76 -10 0 C-3.375 -1.125 -3.375 -1.125 0 0 Z M-7 3 C-7 4.65 -7 6.3 -7 8 C-6.67 8 -6.34 8 -6 8 C-6 6.35 -6 4.7 -6 3 C-6.33 3 -6.66 3 -7 3 Z M-4 4 C-3 6 -3 6 -3 6 Z M-5 6 C-4 8 -4 8 -4 8 Z " fill="#004F61" transform="translate(124,96)"/>
<path d="M0 0 C0.99 0 1.98 0 3 0 C3.33 2.97 3.66 5.94 4 9 C4.33 6.36 4.66 3.72 5 1 C8 0 8 0 11 0 C11.02703381 1.93742341 11.04641125 3.87495479 11.0625 5.8125 C11.07410156 6.89144531 11.08570313 7.97039062 11.09765625 9.08203125 C11 12 11 12 10 15 C7.03 15 4.06 15 1 15 C0.11252807 11.45011229 -0.10545467 8.85819222 -0.0625 5.25 C-0.05347656 4.26515625 -0.04445312 3.2803125 -0.03515625 2.265625 C-0.02355469 1.51796875 -0.01195312 0.7703125 0 0 Z " fill="#004045" transform="translate(143,96)"/>
<path d="M0 0 C0.61875 0.165 1.2375 0.33 1.875 0.5 C4.92432753 1.21748883 7.01229281 0.79672192 10 0 C10.33 0.66 10.66 1.32 11 2 C10.484375 2.763125 9.96875 3.52625 9.4375 4.3125 C8.963125 5.199375 8.48875 6.08625 8 7 C8.70339566 9.50965614 8.70339566 9.50965614 10 12 C10.37593066 13.9924325 10.71979545 15.9918674 11 18 C9.125 17.8125 9.125 17.8125 7 17 C5.75 14.4375 5.75 14.4375 5 12 C4.34 13.65 3.68 15.3 3 17 C1.68 16.67 0.36 16.34 -1 16 C-0.690625 15.2575 -0.38125 14.515 -0.0625 13.75 C1.24996494 10.44445309 1.24996494 10.44445309 2 7 C1.34 6.01 0.68 5.02 0 4 C0 2.68 0 1.36 0 0 Z " fill="#005260" transform="translate(159,94)"/>
<path d="M0 0 C2.97 0 5.94 0 9 0 C9 2.33333333 9 4.66666667 9 7 C9.32205743 9.33491639 9.65458149 11.66842508 10 14 C6.7 14 3.4 14 0 14 C0 9.38 0 4.76 0 0 Z M3 3 C4 7 4 7 4 7 Z " fill="#005362" transform="translate(129,96)"/>
<path d="M0 0 C2.97 0 5.94 0 9 0 C9.125 4.75 9.125 4.75 8 7 C8.28241883 9.3400417 8.61250787 11.67504723 9 14 C6.03 14 3.06 14 0 14 C0 9.38 0 4.76 0 0 Z M3 3 C4 7 4 7 4 7 Z " fill="#005362" transform="translate(68,96)"/>
<path d="M0 0 C1.32 0.33 2.64 0.66 4 1 C2.13236819 6.72210596 0.14710968 12.37661751 -2 18 C-4.44563312 15.55436688 -5.34131255 13.24474828 -6.6875 10.0625 C-7.37392578 8.47115234 -7.37392578 8.47115234 -8.07421875 6.84765625 C-9 4 -9 4 -8 1 C-7.01 1 -6.02 1 -5 1 C-4.34 2.98 -3.68 4.96 -3 7 C-1.25372522 4.38058783 -0.61277612 2.96175123 0 0 Z " fill="#00505F" transform="translate(106,94)"/>
<path d="M0 0 C0.33 0 0.66 0 1 0 C1 21.12 1 42.24 1 64 C0.67 64 0.34 64 0 64 C0 42.88 0 21.76 0 0 Z " fill="#008181" transform="translate(104,16)"/>
<path d="M0 0 C0.99 0 1.98 0 3 0 C3.02703381 1.93742341 3.04641125 3.87495479 3.0625 5.8125 C3.07410156 6.89144531 3.08570313 7.97039062 3.09765625 9.08203125 C3 12 3 12 2 15 C-0.3431213 14.74438677 -2.67843403 14.40729228 -5 14 C-5.33 13.34 -5.66 12.68 -6 12 C-4.35 12 -2.7 12 -1 12 C-0.67 8.04 -0.34 4.08 0 0 Z " fill="#005260" transform="translate(151,96)"/>
<path d="M0 0 C3.29115778 1.86498941 3.95516595 2.8580255 5.125 6.5625 C5.41375 7.696875 5.7025 8.83125 6 10 C6.66 10.66 7.32 11.32 8 12 C7.01 14.31 6.02 16.62 5 19 C4.67 19 4.34 19 4 19 C4.061875 17.96875 4.12375 16.9375 4.1875 15.875 C3.98864405 11.76531027 3.05532197 9.51117504 1 6 C-0.65 6 -2.3 6 -4 6 C-3.0022242 3.00667261 -2.2477975 2.05233685 0 0 Z " fill="#B4B4B4" transform="translate(91,142)"/>
<path d="M0 0 C0 1.32 0 2.64 0 4 C-0.66 4 -1.32 4 -2 4 C-2.33 5.65 -2.66 7.3 -3 9 C-3.66 9 -4.32 9 -5 9 C-5 7.68 -5 6.36 -5 5 C-5.33 6.32 -5.66 7.64 -6 9 C-6.66 9 -7.32 9 -8 9 C-7.88637738 7.5199159 -7.75877092 6.04089926 -7.625 4.5625 C-7.55539063 3.73878906 -7.48578125 2.91507813 -7.4140625 2.06640625 C-7.27742188 1.38449219 -7.14078125 0.70257813 -7 0 C-4.3333581 -1.33332095 -2.83319697 -0.67102033 0 0 Z M-4 0 C-3 2 -3 2 -3 2 Z " fill="#AAAAAA" transform="translate(114,153)"/>
<path d="M0 0 C1.98 0.66 3.96 1.32 6 2 C5.8125 4.875 5.8125 4.875 5 8 C2.4375 9.375 2.4375 9.375 0 10 C-0.66 9.34 -1.32 8.68 -2 8 C-1.63723355 5.17042171 -0.90305236 2.70915709 0 0 Z " fill="#A6A6A6" transform="translate(115,154)"/>
<path d="M0 0 C2.5637264 1.2818632 3.50828021 2.55900398 5 5 C5.25 7.6875 5.25 7.6875 5 10 C4 11 4 11 2.15234375 11.09765625 C0.1015625 11.06510417 -1.94921875 11.03255208 -4 11 C-2.68 10.01 -1.36 9.02 0 8 C-0.2784375 6.2984375 -0.2784375 6.2984375 -0.5625 4.5625 C-0.706875 3.386875 -0.85125 2.21125 -1 1 C-0.67 0.67 -0.34 0.34 0 0 Z " fill="#B6B6B6" transform="translate(110,139)"/>
<path d="M0 0 C2.4375 0.6875 2.4375 0.6875 5 2 C6.16822469 4.95950256 6.26109611 6.35596292 5.0625 9.3125 C4.5365625 10.1478125 4.5365625 10.1478125 4 11 C3.01 10.67 2.02 10.34 1 10 C1 8.68 1 7.36 1 6 C0.01 6.33 -0.98 6.66 -2 7 C-1.34 4.69 -0.68 2.38 0 0 Z M3 4 C4 6 4 6 4 6 Z " fill="#BEBEBE" transform="translate(88,153)"/>
<path d="M0 0 C0.66 0.33 1.32 0.66 2 1 C1.625 3.4375 1.625 3.4375 1 6 C-2.20062687 7.60031344 -4.72271806 6.03173691 -8 5 C-7.67 3.68 -7.34 2.36 -7 1 C-5.5459375 1.0309375 -5.5459375 1.0309375 -4.0625 1.0625 C-1.12534105 1.35618499 -1.12534105 1.35618499 0 0 Z M-5 3 C-5 3.66 -5 4.32 -5 5 C-4.34 5 -3.68 5 -3 5 C-3 4.34 -3 3.68 -3 3 C-3.66 3 -4.32 3 -5 3 Z " fill="#A3A3A3" transform="translate(118,163)"/>
<path d="M0 0 C1.98 0.495 1.98 0.495 4 1 C5.10844919 4.32534757 4.84454356 6.62182575 4 10 C2.35 9.67 0.7 9.34 -1 9 C-0.67 6.03 -0.34 3.06 0 0 Z " fill="#AFAFAF" transform="translate(122,153)"/>
<path d="M0 0 C1.2509564 3.75286921 1 7.05979136 1 11 C-0.65 10.67 -2.3 10.34 -4 10 C-4 8.35 -4 6.7 -4 5 C-4.66 4.67 -5.32 4.34 -6 4 C-4.02 2.68 -2.04 1.36 0 0 Z " fill="#004956" transform="translate(123,101)"/>
<path d="M0 0 C0.66 0 1.32 0 2 0 C2.50806447 1.72681437 3.00610467 3.45657979 3.5 5.1875 C3.7784375 6.15042969 4.056875 7.11335937 4.34375 8.10546875 C4.96677608 10.85345876 5.12302812 13.19598416 5 16 C3 13 3 13 3 10 C2.01 9.67 1.02 9.34 0 9 C-0.84454356 5.62182575 -1.10844919 3.32534757 0 0 Z " fill="#ABABAB" transform="translate(89,126)"/>
<path d="M0 0 C3.375 -0.1875 3.375 -0.1875 7 0 C7.66 0.99 8.32 1.98 9 3 C5.535 4.485 5.535 4.485 2 6 C1.855625 5.38125 1.71125 4.7625 1.5625 4.125 C1.06847775 1.96741678 1.06847775 1.96741678 0 0 Z " fill="#004561" transform="translate(37,96)"/>
<path d="M0 0 C0.66 0.33 1.32 0.66 2 1 C2.625 3.5625 2.625 3.5625 3 6 C2.34 6 1.68 6 1 6 C1 6.99 1 7.98 1 9 C0.34 9 -0.32 9 -1 9 C-1.33 9.66 -1.66 10.32 -2 11 C-2.05399736 9.54207116 -2.09279177 8.08357288 -2.125 6.625 C-2.15980469 5.40683594 -2.15980469 5.40683594 -2.1953125 4.1640625 C-2 2 -2 2 0 0 Z M0 2 C1 6 1 6 1 6 Z " fill="#A7A7A7" transform="translate(89,136)"/>
<path d="M0 0 C0.99 0 1.98 0 3 0 C3.33 3.63 3.66 7.26 4 11 C2.68 10.34 1.36 9.68 0 9 C0 6.03 0 3.06 0 0 Z " fill="#005261" transform="translate(143,96)"/>
<path d="M0 0 C2.64752004 2.57784846 4.94432065 4.91648098 7 8 C6.67 8.66 6.34 9.32 6 10 C3.54896452 9.01958581 2.23241214 8.3486182 0.75 6.125 C0 4 0 4 0 0 Z " fill="#33C1C0" transform="translate(76,65)"/>
<path d="M0 0 C4.29 0 8.58 0 13 0 C13 0.66 13 1.32 13 2 C8.71 2 4.42 2 0 2 C0 1.34 0 0.68 0 0 Z " fill="#7E7E7E" transform="translate(95,117)"/>
<path d="M0 0 C0.66 0 1.32 0 2 0 C2 0.66 2 1.32 2 2 C3.65 1.67 5.3 1.34 7 1 C7 1.66 7 2.32 7 3 C5 5 5 5 2.8359375 5.1953125 C1.61777344 5.16050781 1.61777344 5.16050781 0.375 5.125 C-0.44226563 5.10695312 -1.25953125 5.08890625 -2.1015625 5.0703125 C-2.72804688 5.04710937 -3.35453125 5.02390625 -4 5 C-3.01 4.34 -2.02 3.68 -1 3 C-0.67 2.01 -0.34 1.02 0 0 Z " fill="#A4A4A4" transform="translate(102,166)"/>
<path d="M0 0 C2.475 0.99 2.475 0.99 5 2 C4.01 4.64 3.02 7.28 2 10 C1.67 10 1.34 10 1 10 C1.020625 8.906875 1.04125 7.81375 1.0625 6.6875 C1.18544452 3.05615809 1.18544452 3.05615809 0 0 Z " fill="#C8C8C8" transform="translate(94,151)"/>
<path d="M0 0 C0.33 0 0.66 0 1 0 C1 7.59 1 15.18 1 23 C0.67 23 0.34 23 0 23 C0 15.41 0 7.82 0 0 Z " fill="#007F7F" transform="translate(111,18)"/>
<path d="M0 0 C0.33 0 0.66 0 1 0 C1 7.26 1 14.52 1 22 C0.67 22 0.34 22 0 22 C0 14.74 0 7.48 0 0 Z " fill="#008484" transform="translate(111,56)"/>
<path d="M0 0 C2.64 0 5.28 0 8 0 C7.67 0.99 7.34 1.98 7 3 C4.69 2.67 2.38 2.34 0 2 C0 1.34 0 0.68 0 0 Z " fill="#AFAFAF" transform="translate(98,172)"/>
<path d="M0 0 C1.98 0.495 1.98 0.495 4 1 C4 1.99 4 2.98 4 4 C3.34 4 2.68 4 2 4 C2 4.66 2 5.32 2 6 C1.01 6 0.02 6 -1 6 C-0.67 4.02 -0.34 2.04 0 0 Z " fill="#9E9E9E" transform="translate(95,163)"/>
<path d="M0 0 C6.27 0 12.54 0 19 0 C19 0.33 19 0.66 19 1 C12.73 1 6.46 1 0 1 C0 0.67 0 0.34 0 0 Z " fill="#55AAAA" transform="translate(114,53)"/>
<path d="M0 0 C0.99 0 1.98 0 3 0 C3.33 1.98 3.66 3.96 4 6 C2.68 5.67 1.36 5.34 0 5 C0 3.35 0 1.7 0 0 Z " fill="#A8A8A8" transform="translate(98,128)"/>
<path d="M0 0 C0.99 0.33 1.98 0.66 3 1 C3 2.65 3 4.3 3 6 C1.68 5.67 0.36 5.34 -1 5 C-0.67 3.35 -0.34 1.7 0 0 Z " fill="#969696" transform="translate(89,164)"/>
<path d="M0 0 C2.31 0 4.62 0 7 0 C6.01 0.495 6.01 0.495 5 1 C4.67 1.99 4.34 2.98 4 4 C2.68 3.67 1.36 3.34 0 3 C0 2.01 0 1.02 0 0 Z " fill="#A6A6A6" transform="translate(98,155)"/>
<path d="M0 0 C0.33 0 0.66 0 1 0 C1 5.28 1 10.56 1 16 C0.67 16 0.34 16 0 16 C0 10.72 0 5.44 0 0 Z " fill="#13C3C3" transform="translate(68,40)"/>
<path d="M0 0 C0.33 0.66 0.66 1.32 1 2 C1.99 2 2.98 2 4 2 C3.67 2.99 3.34 3.98 3 5 C1.68 4.67 0.36 4.34 -1 4 C-0.67 2.68 -0.34 1.36 0 0 Z " fill="#B3B3B3" transform="translate(97,133)"/>
<path d="M0 0 C0.66 0 1.32 0 2 0 C2 4.62 2 9.24 2 14 C1.67 14 1.34 14 1 14 C0.67 9.38 0.34 4.76 0 0 Z " fill="#004C4C" transform="translate(111,96)"/>
<path d="M0 0 C0.33 0 0.66 0 1 0 C1 4.62 1 9.24 1 14 C0.67 14 0.34 14 0 14 C0 9.38 0 4.76 0 0 Z " fill="#005151" transform="translate(127,96)"/>
<path d="M0 0 C0.33 0 0.66 0 1 0 C1 4.62 1 9.24 1 14 C0.67 14 0.34 14 0 14 C0 9.38 0 4.76 0 0 Z " fill="#003C72" transform="translate(63,96)"/>
<path d="M0 0 C0.33 0 0.66 0 1 0 C1 4.62 1 9.24 1 14 C0.67 14 0.34 14 0 14 C0 9.38 0 4.76 0 0 Z " fill="#007575" transform="translate(66,96)"/>
<path d="M0 0 C2.97 0.495 2.97 0.495 6 1 C6 1.66 6 2.32 6 3 C4.02 3.66 2.04 4.32 0 5 C0 3.35 0 1.7 0 0 Z " fill="#BFBFBF" transform="translate(95,137)"/>
<path d="M0 0 C0.66 0 1.32 0 2 0 C1.67 3.63 1.34 7.26 1 11 C0.67 11 0.34 11 0 11 C0 7.37 0 3.74 0 0 Z " fill="#004E58" transform="translate(94,96)"/>
<path d="M0 0 C0.33 0 0.66 0 1 0 C1 4.29 1 8.58 1 13 C0.67 13 0.34 13 0 13 C0 8.71 0 4.42 0 0 Z " fill="#000000" transform="translate(49,96)"/>
<path d="M0 0 C3.96 0 7.92 0 12 0 C12 0.33 12 0.66 12 1 C8.04 1 4.08 1 0 1 C0 0.67 0 0.34 0 0 Z " fill="#000000" transform="translate(96,120)"/>
<path d="M0 0 C0.33 0 0.66 0 1 0 C1 3.96 1 7.92 1 12 C0.67 12 0.34 12 0 12 C0 8.04 0 4.08 0 0 Z " fill="#005151" transform="translate(155,96)"/>
<path d="M0 0 C0.33 0 0.66 0 1 0 C1 3.96 1 7.92 1 12 C0.67 12 0.34 12 0 12 C0 8.04 0 4.08 0 0 Z " fill="#005151" transform="translate(80,96)"/>
<path d="M0 0 C0.33 0 0.66 0 1 0 C1 3.63 1 7.26 1 11 C0.67 11 0.34 11 0 11 C0 7.37 0 3.74 0 0 Z " fill="#005151" transform="translate(141,96)"/>
<path d="M0 0 C0 0.66 0 1.32 0 2 C-2.64 2 -5.28 2 -8 2 C-8 1.67 -8 1.34 -8 1 C-2.25 0 -2.25 0 0 0 Z " fill="#1D9D96" transform="translate(102,13)"/>
<path d="M0 0 C2.97 0 5.94 0 9 0 C9 0.33 9 0.66 9 1 C6.03 1 3.06 1 0 1 C0 0.67 0 0.34 0 0 Z " fill="#004B67" transform="translate(129,111)"/>
<path d="M0 0 C2.97 0 5.94 0 9 0 C9 0.33 9 0.66 9 1 C6.03 1 3.06 1 0 1 C0 0.67 0 0.34 0 0 Z " fill="#005E5E" transform="translate(68,111)"/>
<path d="M0 0 C2.97 0 5.94 0 9 0 C9 0.33 9 0.66 9 1 C6.03 1 3.06 1 0 1 C0 0.67 0 0.34 0 0 Z " fill="#007070" transform="translate(129,94)"/>
<path d="M0 0 C2.97 0 5.94 0 9 0 C9 0.33 9 0.66 9 1 C6.03 1 3.06 1 0 1 C0 0.67 0 0.34 0 0 Z " fill="#007070" transform="translate(68,94)"/>
<path d="M0 0 C0.33 0 0.66 0 1 0 C1 2.64 1 5.28 1 8 C0.67 8 0.34 8 0 8 C0 5.36 0 2.72 0 0 Z " fill="#B7B7B7" transform="translate(85,138)"/>
<path d="M0 0 C2.31 0 4.62 0 7 0 C7 0.33 7 0.66 7 1 C4.69 1 2.38 1 0 1 C0 0.67 0 0.34 0 0 Z " fill="#008585" transform="translate(114,94)"/>
<path d="M0 0 C1.98 0.99 1.98 0.99 4 2 C3.67 2.66 3.34 3.32 3 4 C2.01 2.68 1.02 1.36 0 0 Z " fill="#30AAAA" transform="translate(123,22)"/>
<path d="M0 0 C1.98 0 3.96 0 6 0 C6 0.33 6 0.66 6 1 C4.02 1 2.04 1 0 1 C0 0.67 0 0.34 0 0 Z " fill="#828282" transform="translate(100,153)"/>
<path d="M0 0 C0.33 0 0.66 0 1 0 C1 1.98 1 3.96 1 6 C0.67 6 0.34 6 0 6 C0 4.02 0 2.04 0 0 Z " fill="#004A4A" transform="translate(31,100)"/>
<path d="M0 0 C0.66 0.66 1.32 1.32 2 2 C1.67 2.99 1.34 3.98 1 5 C0.67 3.35 0.34 1.7 0 0 Z " fill="#003030" transform="translate(102,96)"/>
<path d="M0 0 C1.65 0 3.3 0 5 0 C5 0.33 5 0.66 5 1 C3.35 1 1.7 1 0 1 C0 0.67 0 0.34 0 0 Z " fill="#AAAAAA" transform="translate(100,176)"/>
<path d="M0 0 C0.33 0 0.66 0 1 0 C1 1.65 1 3.3 1 5 C0.67 5 0.34 5 0 5 C0 3.35 0 1.7 0 0 Z " fill="#909090" transform="translate(116,144)"/>
<path d="M0 0 C1.65 0 3.3 0 5 0 C5 0.33 5 0.66 5 1 C3.35 1 1.7 1 0 1 C0 0.67 0 0.34 0 0 Z " fill="#00435D" transform="translate(146,111)"/>
<path d="M0 0 C1.65 0 3.3 0 5 0 C5 0.33 5 0.66 5 1 C3.35 1 1.7 1 0 1 C0 0.67 0 0.34 0 0 Z " fill="#005D5D" transform="translate(85,111)"/>
<path d="M0 0 C0.33 0 0.66 0 1 0 C1 1.65 1 3.3 1 5 C0.67 5 0.34 5 0 5 C0 3.35 0 1.7 0 0 Z " fill="#004848" transform="translate(125,99)"/>
<path d="M0 0 C1.65 0 3.3 0 5 0 C5 0.33 5 0.66 5 1 C3.35 1 1.7 1 0 1 C0 0.67 0 0.34 0 0 Z " fill="#22D4C3" transform="translate(94,81)"/>
<path d="M0 0 C1 4 1 4 1 4 Z " fill="#8A8A8A" transform="translate(74,157)"/>
<path d="M0 0 C0.66 0.66 1.32 1.32 2 2 C1.01 2.495 1.01 2.495 0 3 C0 2.01 0 1.02 0 0 Z " fill="#B7B7B7" transform="translate(79,158)"/>
<path d="M0 0 C0.99 0.495 0.99 0.495 2 1 C1.67 1.66 1.34 2.32 1 3 C0.67 2.01 0.34 1.02 0 0 Z " fill="#CCCCCC" transform="translate(81,153)"/>
<path d="M0 0 C4 1 4 1 4 1 Z " fill="#E9E9E9" transform="translate(116,153)"/>
<path d="" fill="#CDCDCD" transform="translate(0,0)"/>
<path d="M0 0 C3 1 3 1 3 1 Z " fill="#AAAAAA" transform="translate(121,163)"/>
<path d="" fill="#787878" transform="translate(0,0)"/>
<path d="" fill="#E2E2E2" transform="translate(0,0)"/>
<path d="M0 0 C0.33 0.66 0.66 1.32 1 2 C0.34 1.67 -0.32 1.34 -1 1 C-0.67 0.67 -0.34 0.34 0 0 Z " fill="#AAAAAA" transform="translate(109,144)"/>
<path d="" fill="#E2E2E2" transform="translate(0,0)"/>
<path d="" fill="#B8B8B8" transform="translate(0,0)"/>
<path d="" fill="#E2E2E2" transform="translate(0,0)"/>
<path d="M0 0 C3 1 3 1 3 1 Z " fill="#009B9B" transform="translate(114,111)"/>
<path d="M0 0 C3 1 3 1 3 1 Z " fill="#001C1C" transform="translate(59,111)"/>
<path d="M0 0 C3 1 3 1 3 1 Z " fill="#004646" transform="translate(51,111)"/>
<path d="M0 0 C0.33 0.66 0.66 1.32 1 2 C0.34 1.67 -0.32 1.34 -1 1 C-0.67 0.67 -0.34 0.34 0 0 Z " fill="#003131" transform="translate(164,107)"/>
<path d="" fill="#004646" transform="translate(0,0)"/>
<path d="" fill="#001C71" transform="translate(0,0)"/>
<path d="" fill="#007171" transform="translate(0,0)"/>
<path d="" fill="#004646" transform="translate(0,0)"/>
<path d="" fill="#003F3F" transform="translate(0,0)"/>
<path d="M0 0 C3 1 3 1 3 1 Z " fill="#00D4D4" transform="translate(151,94)"/>
<path d="M0 0 C3 1 3 1 3 1 Z " fill="#005454" transform="translate(143,94)"/>
<path d="M0 0 C3 1 3 1 3 1 Z " fill="#007F7F" transform="translate(82,94)"/>
<path d="M0 0 C3 1 3 1 3 1 Z " fill="#002A2A" transform="translate(59,94)"/>
<path d="M0 0 C3 1 3 1 3 1 Z " fill="#005454" transform="translate(51,94)"/>
<path d="M0 0 C3 1 3 1 3 1 Z " fill="#00FFFF" transform="translate(99,82)"/>
<path d="" fill="#1CE2E2" transform="translate(0,0)"/>
<path d="" fill="#3FE9E9" transform="translate(0,0)"/>
<path d="" fill="#1C8D8D" transform="translate(0,0)"/>
<path d="" fill="#1CE2E2" transform="translate(0,0)"/>
<path d="" fill="#159494" transform="translate(0,0)"/>
<path d="M0 0 C3 1 3 1 3 1 Z " fill="#38B8B8" transform="translate(91,15)"/>
<path d="M0 0 C2 1 2 1 2 1 Z " fill="#BFBFBF" transform="translate(98,175)"/>
<path d="" fill="#D4D4D4" transform="translate(0,0)"/>
<path d="M0 0 C2 1 2 1 2 1 Z " fill="#BFBFBF" transform="translate(115,170)"/>
<path d="M0 0 C2 1 2 1 2 1 Z " fill="#BFBFBF" transform="translate(111,170)"/>
<path d="M0 0 C2 1 2 1 2 1 Z " fill="#7F7F7F" transform="translate(108,170)"/>
<path d="M0 0 C2 1 2 1 2 1 Z " fill="#BFBFBF" transform="translate(85,170)"/>
<path d="" fill="#FFFFFF" transform="translate(0,0)"/>
<path d="" fill="#FFFFFF" transform="translate(0,0)"/>
<path d="M0 0 C2 1 2 1 2 1 Z " fill="#FFFFFF" transform="translate(93,154)"/>
<path d="M0 0 C2 1 2 1 2 1 Z " fill="#949494" transform="translate(91,153)"/>
<path d="" fill="#BFBFBF" transform="translate(0,0)"/>
<path d="" fill="#BFBFBF" transform="translate(0,0)"/>
<path d="" fill="#555555" transform="translate(0,0)"/>
<path d="" fill="#7F7F7F" transform="translate(0,0)"/>
<path d="" fill="#949494" transform="translate(0,0)"/>
<path d="" fill="#FFFFFF" transform="translate(0,0)"/>
<path d="" fill="#FFFFFF" transform="translate(0,0)"/>
<path d="M0 0 C2 1 2 1 2 1 Z " fill="#005555" transform="translate(159,111)"/>
<path d="" fill="#000000" transform="translate(0,0)"/>
<path d="" fill="#000000" transform="translate(0,0)"/>
<path d="" fill="#002F2F" transform="translate(0,0)"/>
<path d="" fill="#002A2A" transform="translate(0,0)"/>
<path d="" fill="#007F7F" transform="translate(0,0)"/>
<path d="" fill="#002A2A" transform="translate(0,0)"/>
<path d="" fill="#002AAA" transform="translate(0,0)"/>
<path d="" fill="#003F3F" transform="translate(0,0)"/>
<path d="" fill="#00007F" transform="translate(0,0)"/>
<path d="" fill="#007F7F" transform="translate(0,0)"/>
<path d="" fill="#003F3F" transform="translate(0,0)"/>
<path d="" fill="#006A6A" transform="translate(0,0)"/>
<path d="" fill="#002A2A" transform="translate(0,0)"/>
<path d="" fill="#003F3F" transform="translate(0,0)"/>
<path d="" fill="#006A6A" transform="translate(0,0)"/>
<path d="" fill="#007F7F" transform="translate(0,0)"/>
<path d="" fill="#00007F" transform="translate(0,0)"/>
<path d="" fill="#002A2A" transform="translate(0,0)"/>
<path d="" fill="#002A2A" transform="translate(0,0)"/>
<path d="" fill="#006A6A" transform="translate(0,0)"/>
<path d="M0 0 C2 1 2 1 2 1 Z " fill="#007F7F" transform="translate(43,101)"/>
<path d="" fill="#003F7F" transform="translate(0,0)"/>
<path d="" fill="#003FBF" transform="translate(0,0)"/>
<path d="" fill="#002A2A" transform="translate(0,0)"/>
<path d="" fill="#003F3F" transform="translate(0,0)"/>
<path d="" fill="#003F3F" transform="translate(0,0)"/>
<path d="" fill="#003F3F" transform="translate(0,0)"/>
<path d="" fill="#002A2A" transform="translate(0,0)"/>
<path d="M0 0 C2 1 2 1 2 1 Z " fill="#007F7F" transform="translate(98,94)"/>
<path d="M0 0 C2 1 2 1 2 1 Z " fill="#00BFBF" transform="translate(90,94)"/>
<path d="M0 0 C2 1 2 1 2 1 Z " fill="#2A9494" transform="translate(114,79)"/>
<path d="" fill="#00BFBF" transform="translate(0,0)"/>
<path d="" fill="#2A5555" transform="translate(0,0)"/>
<path d="" fill="#2AD4D4" transform="translate(0,0)"/>
<path d="" fill="#2A5555" transform="translate(0,0)"/>
<path d="" fill="#2AD4D4" transform="translate(0,0)"/>
<path d="" fill="#007F7F" transform="translate(0,0)"/>
<path d="" fill="#2AD4D4" transform="translate(0,0)"/>
<path d="" fill="#2AD4D4" transform="translate(0,0)"/>
<path d="" fill="#2AD4D4" transform="translate(0,0)"/>
<path d="" fill="#00BFBF" transform="translate(0,0)"/>
<path d="" fill="#3FFFFF" transform="translate(0,0)"/>
<path d="" fill="#2A5555" transform="translate(0,0)"/>
<path d="" fill="#000000" transform="translate(0,0)"/>
<path d="" fill="#FFFFFF" transform="translate(0,0)"/>
<path d="" fill="#FFFFFF" transform="translate(0,0)"/>
<path d="" fill="#AAAAAA" transform="translate(0,0)"/>
<path d="" fill="#FFFFFF" transform="translate(0,0)"/>
<path d="" fill="#FFFFFF" transform="translate(0,0)"/>
<path d="" fill="#FFFFFF" transform="translate(0,0)"/>
<path d="" fill="#000000" transform="translate(0,0)"/>
<path d="" fill="#000000" transform="translate(0,0)"/>
<path d="" fill="#FFFFFF" transform="translate(0,0)"/>
<path d="" fill="#7F7F7F" transform="translate(0,0)"/>
<path d="" fill="#000000" transform="translate(0,0)"/>
<path d="" fill="#AAAAAA" transform="translate(0,0)"/>
<path d="" fill="#FFFFFF" transform="translate(0,0)"/>
<path d="" fill="#7F7F7F" transform="translate(0,0)"/>
<path d="" fill="#000000" transform="translate(0,0)"/>
<path d="" fill="#000000" transform="translate(0,0)"/>
<path d="" fill="#AAAAAA" transform="translate(0,0)"/>
<path d="" fill="#FFFFFF" transform="translate(0,0)"/>
<path d="" fill="#AAAAAA" transform="translate(0,0)"/>
<path d="" fill="#AAAAAA" transform="translate(0,0)"/>
<path d="" fill="#FFFFFF" transform="translate(0,0)"/>
<path d="" fill="#FFFFFF" transform="translate(0,0)"/>
<path d="" fill="#FFFFFF" transform="translate(0,0)"/>
<path d="" fill="#AAAAAA" transform="translate(0,0)"/>
<path d="" fill="#FFFFFF" transform="translate(0,0)"/>
<path d="" fill="#FFFFFF" transform="translate(0,0)"/>
<path d="" fill="#0000FF" transform="translate(0,0)"/>
<path d="" fill="#000000" transform="translate(0,0)"/>
<path d="" fill="#000000" transform="translate(0,0)"/>
<path d="" fill="#000000" transform="translate(0,0)"/>
<path d="" fill="#000000" transform="translate(0,0)"/>
<path d="" fill="#005555" transform="translate(0,0)"/>
<path d="" fill="#007F7F" transform="translate(0,0)"/>
<path d="" fill="#007F7F" transform="translate(0,0)"/>
<path d="" fill="#00FFFF" transform="translate(0,0)"/>
<path d="" fill="#007F7F" transform="translate(0,0)"/>
<path d="" fill="#005555" transform="translate(0,0)"/>
<path d="" fill="#000000" transform="translate(0,0)"/>
<path d="" fill="#005555" transform="translate(0,0)"/>
<path d="" fill="#007F7F" transform="translate(0,0)"/>
<path d="" fill="#005555" transform="translate(0,0)"/>
<path d="" fill="#005555" transform="translate(0,0)"/>
<path d="" fill="#005555" transform="translate(0,0)"/>
<path d="" fill="#007F7F" transform="translate(0,0)"/>
<path d="" fill="#005555" transform="translate(0,0)"/>
<path d="" fill="#007F7F" transform="translate(0,0)"/>
<path d="" fill="#007F7F" transform="translate(0,0)"/>
<path d="" fill="#000000" transform="translate(0,0)"/>
<path d="" fill="#007F7F" transform="translate(0,0)"/>
<path d="" fill="#007F7F" transform="translate(0,0)"/>
<path d="" fill="#55AAAA" transform="translate(0,0)"/>
<path d="" fill="#007F7F" transform="translate(0,0)"/>
<path d="" fill="#00AAAA" transform="translate(0,0)"/>
<path d="" fill="#55AAAA" transform="translate(0,0)"/>
<path d="" fill="#55AAAA" transform="translate(0,0)"/>
<path d="" fill="#007F7F" transform="translate(0,0)"/>
<path d="" fill="#55AAAA" transform="translate(0,0)"/>
<path d="" fill="#00FFFF" transform="translate(0,0)"/>
<path d="" fill="#55AAAA" transform="translate(0,0)"/>
<path d="" fill="#55AAAA" transform="translate(0,0)"/>
<path d="" fill="#00AAAA" transform="translate(0,0)"/>
<path d="" fill="#007F7F" transform="translate(0,0)"/>
<path d="" fill="#55AAAA" transform="translate(0,0)"/>
<path d="" fill="#55FFAA" transform="translate(0,0)"/>
<path d="" fill="#55AAAA" transform="translate(0,0)"/>
<path d="" fill="#3FBFBF" transform="translate(0,0)"/>
<path d="" fill="#3F7F7F" transform="translate(0,0)"/>
<path d="" fill="#3FBF7F" transform="translate(0,0)"/>
<path d="" fill="#3FBFBF" transform="translate(0,0)"/>
<path d="" fill="#55FFFF" transform="translate(0,0)"/>
<path d="" fill="#55AAAA" transform="translate(0,0)"/>
<path d="" fill="#55AAAA" transform="translate(0,0)"/>
</svg>
